<svg width="1961" height="846" viewBox="0 0 1961 846" fill="none" xmlns="http://www.w3.org/2000/svg">
<path fill-rule="evenodd" clip-rule="evenodd" d="M1052.14 53.1634L1031.12 30.6385C1019.56 18.25 1008.09 8.12718 1005.62 8.14627C1003.15 8.16535 990.289 20.7528 977.037 36.1238C963.784 51.4949 950.469 66.6069 947.445 69.7068C944.422 72.8093 932.131 86.8363 920.136 100.877C908.14 114.917 888.728 137.377 877 150.785C865.271 164.193 854.535 178.157 853.144 181.816C851.754 185.478 850.614 211.86 850.614 240.449V292.423L862.201 282.497C887.161 261.114 922.251 249.552 956.881 251.297L974.542 252.185L976.489 241.28C977.56 235.282 978.509 223.202 978.594 214.437C978.904 182.885 990.45 154.795 1011.7 133.876C1028.95 116.894 1048.03 109.285 1078.83 107.112L1101.44 105.517V0H1052.36L1052.14 53.1634Z" fill="white"/>
<path fill-rule="evenodd" clip-rule="evenodd" d="M1000.56 3.23343C1000.56 5.01099 997.803 9.61031 994.428 13.4572L988.294 20.4475L995.11 14.7194C998.858 11.5678 1004.07 8.23351 1006.7 7.30656C1013.2 5.01099 1012.74 0 1006.02 0C1003.02 0 1000.56 1.45313 1000.56 3.23343ZM979.379 28.7655C976.058 31.091 971.952 35.6931 970.251 38.9892C968.026 43.3077 969.929 42.3562 977.048 35.5895C986.189 26.9007 988.138 24.537 986.175 24.537C985.758 24.537 982.699 26.4399 979.379 28.7655ZM1030.55 29.0572C1030.55 30.5076 1034.39 35.3005 1039.09 39.7035C1045.18 45.4206 1046.81 46.1431 1044.79 42.2281C1041.27 35.3959 1030.55 25.483 1030.55 29.0572ZM1105.17 54.5266C1105.17 70.2711 1105.62 76.7134 1106.17 68.8398C1106.72 60.9661 1106.72 48.087 1106.17 40.2133C1105.62 32.3397 1105.17 38.782 1105.17 54.5266ZM952.601 60.6608C945.068 68.5344 937.238 77.4277 935.204 80.4267C931.401 86.0266 946.513 70.9827 960.534 55.2081C972.904 41.293 967.732 44.8454 952.601 60.6608ZM1.92479 83.4992C0.866976 84.5571 0 152.696 0 234.92V384.412H43.6212V248.096H201.748V384.641L244.006 383.049L244.762 238.554C245.176 159.081 244.846 91.2965 244.028 87.9241C242.649 82.2424 241.037 81.7898 222.144 81.7898H201.748V215.38H43.7194L42.2581 83.153L23.0538 82.3624C12.492 81.9289 2.98533 82.4414 1.92479 83.4992ZM478.926 83.6083C477.925 84.6061 477.107 152.696 477.107 234.92V384.412H662.498V348.97H520.606L522.092 249.459L636.598 246.733V216.743L520.603 215.271L522.092 118.595L662.498 117.139V81.7898H571.621C521.636 81.7898 479.924 82.6077 478.926 83.6083ZM1332.49 83.3029C1331.37 84.4698 1330.45 152.696 1330.45 234.92V384.412H1371.24L1372.71 260.364L1390.93 259.563C1407.65 258.827 1409.84 259.388 1417.39 266.379C1424.74 273.178 1459.54 319.457 1481.26 351.317C1485.72 357.858 1493.91 367.981 1499.46 373.81C1509.48 384.352 1509.66 384.412 1530.7 384.412C1548.58 384.412 1551.62 383.763 1550.26 380.241C1548.55 375.77 1540.9 365.121 1489.85 296.112L1457.03 251.765L1469.4 246.814C1485.95 240.187 1504.68 225.609 1513.51 212.49C1523.36 197.852 1527.49 172.86 1523.84 149.948C1519.07 119.967 1503.84 103.148 1470.13 90.6177C1453.2 84.3226 1447.21 83.6901 1393.15 82.4878C1360.91 81.768 1333.62 82.1361 1332.49 83.3029ZM1727.13 118.595L1823.91 120.084V384.412H1864.81V119.958H1960.23V81.7898H1725.52L1727.13 118.595ZM919.958 98.8294C903.876 115.997 895.85 125.411 897.294 125.411C898.001 125.411 906.267 116.823 915.664 106.327C934.364 85.4404 937.298 80.3203 919.958 98.8294ZM1076.22 108.298C1081.09 108.903 1089.06 108.903 1093.94 108.298C1098.81 107.695 1094.83 107.199 1085.08 107.199C1075.33 107.199 1071.34 107.695 1076.22 108.298ZM1373.39 118.772C1370.49 121.744 1370.92 221.397 1373.85 226.029C1375.83 229.142 1382.09 229.51 1407.15 227.986C1443.9 225.756 1461.54 219.14 1473.87 202.972C1480.67 194.055 1481.88 189.785 1482.67 171.971C1483.46 153.972 1482.76 150.082 1477.21 141.769C1473.55 136.284 1465.07 129.362 1457.25 125.49C1445.48 119.659 1439.08 118.617 1409.54 117.717C1390.78 117.148 1374.51 117.622 1373.39 118.772ZM1016.87 128.923C1011.59 133.737 1004.25 141.36 1000.57 145.859C996.885 150.357 1001.51 146.715 1010.85 137.764C1026.21 123.045 1029.24 119.746 1027.14 120.062C1026.77 120.117 1022.14 124.105 1016.87 128.923ZM1059.18 123.62C1040.52 129.784 1031.82 135.528 1017.61 151.079C999.21 171.208 995.137 184.068 993.177 228.224L991.576 264.241L980.393 265.599C974.242 266.343 956.074 267.485 940.019 268.132C905.364 269.528 892.592 274.536 872.526 294.602C856.31 310.818 850.606 326.361 850.642 354.226C850.661 370.104 852.138 378.03 857.04 388.556C864.562 404.71 887.567 426.499 901.954 431.095C907.897 432.993 938.094 434.781 976.35 435.498L1040.74 436.706L1041.95 383.736C1043.01 337.656 1043.86 329.589 1048.45 321.731C1054.73 310.979 1070.88 301.889 1081.53 303.11C1088.79 303.942 1088.52 304.302 1076.08 310.431C1054.35 321.129 1053.91 322.612 1052.76 389.404L1051.74 447.865L1059.07 446.025C1068.57 443.642 1137.9 436.281 1151.19 436.242L1161.42 436.212V317.999C1161.42 252.979 1160.63 194.057 1159.67 187.056C1157.2 169.002 1143.56 147.617 1127.8 137.072C1106.31 122.69 1078.5 117.238 1059.18 123.62ZM886.288 136.998C881.831 141.87 871.105 153.607 862.449 163.078L846.713 180.298L845.813 214.878C845.32 233.897 845.89 260.858 847.084 274.789L849.251 300.12L879.241 268.963L851.977 291.63L851.176 243.281C850.734 216.689 851.078 191.05 851.937 186.304C852.945 180.739 861.269 168.885 875.386 152.906C887.422 139.283 896.624 128.137 895.83 128.137C895.037 128.137 890.743 132.126 886.288 136.998ZM978.594 211.972C978.509 222.095 977.563 235.282 976.497 241.28L974.553 252.185L953.132 251.204C937.922 250.509 932.254 251.1 933.582 253.249C934.713 255.078 944.544 256.275 958.465 256.275H981.478V224.922C981.478 207.678 980.865 193.569 980.115 193.569C979.365 193.569 978.681 201.849 978.594 211.972ZM911.57 316.058C901.368 322.263 891.509 334.455 891.509 340.867C891.509 347.004 896.856 348.97 913.543 348.97H926.951V332.945C926.951 313.037 923.241 308.961 911.57 316.058ZM937.857 349.229L954.896 348.419C970.03 347.697 972.031 346.942 972.781 341.663C974.071 332.623 955.703 313.528 945.72 313.528H937.857V349.229ZM897.643 359.074C893.936 359.788 891.509 362.236 891.509 365.265C891.509 371.021 918.053 396.007 922.581 394.513C924.258 393.96 925.945 385.484 926.395 375.334L927.2 357.149L915.49 357.52C909.048 357.724 901.019 358.422 897.643 359.074ZM937.857 374.619C937.857 388.526 938.849 393.142 942.102 394.391C947.17 396.337 964.695 382.937 970.532 372.654C976.091 362.866 971.884 359.295 952.947 357.724L937.857 356.473V374.619ZM200.385 843.798L237.191 845.41L237.231 785.989C237.256 753.306 238.262 725.012 239.467 723.109C241.166 720.438 257.344 719.819 310.992 720.383L380.323 721.114L381.789 845.162H419.854V572.529H381.686V692.577L238.554 691.124L237.084 572.529H198.97L200.385 843.798ZM624.741 603.124C618.219 620.035 610.005 640.619 606.488 648.866C598.511 667.566 551.424 785.463 546.133 799.989C543.984 805.883 539.843 815.938 536.931 822.331C534.017 828.725 531.634 836.478 531.634 839.559C531.634 844.475 533.33 845.162 545.446 845.162C567.81 845.162 570.356 842.454 583.731 804.43C586.602 796.273 591.013 784.923 593.533 779.212L598.115 768.824L715.661 768.827L727.93 800.624C744.388 843.278 746.011 845.162 766.297 845.162C778.563 845.162 782.456 844.213 782.456 841.225C782.456 839.06 778.02 826.484 772.598 813.28C767.175 800.076 759.942 781.911 756.521 772.914C753.099 763.917 746.406 747.355 741.651 736.109C736.894 724.862 731.989 712.436 730.751 708.496C729.514 704.554 726.602 697.193 724.282 692.138C721.959 687.081 715.661 671.29 710.287 657.045C704.911 642.8 698.134 625.624 695.23 618.876C692.326 612.129 686.953 599.247 683.291 590.25L676.634 573.892L636.598 572.376L624.741 603.124ZM861.541 580.026C862.845 584.148 873.93 612.061 886.174 642.05C898.418 672.04 916.316 716.206 925.948 740.198C935.58 764.19 945.229 787.5 947.391 791.998C951.887 801.341 964.785 833.196 967.037 840.508C968.318 844.663 971.186 845.276 986.2 844.597L1003.86 843.798L1008.68 831.53C1011.33 824.782 1017.39 810.06 1022.14 798.814C1026.89 787.568 1035.13 767.325 1040.45 753.83C1045.77 740.334 1051.79 725.612 1053.83 721.114C1055.88 716.615 1060.17 706.187 1063.37 697.94C1070.81 678.823 1077.32 662.637 1085.86 642.05C1105.51 594.713 1112.34 577.431 1112.34 575.103C1112.34 573.688 1104.05 572.529 1093.91 572.529C1079.1 572.529 1074.88 573.494 1072.41 577.453C1069.94 581.408 1000.19 755.735 988.836 786.333L985.881 794.299L983.37 786.333C979.88 775.261 952.162 703.821 947.489 693.85C945.379 689.352 934.231 661.748 922.712 632.508C911.196 603.268 900.539 577.812 899.034 575.937C897.327 573.813 889.304 572.529 877.733 572.529H859.175L861.541 580.026ZM1220.03 843.798L1387.7 845.241V812.446H1259.56V722.477H1363.16V692.487H1259.56V602.518H1387.7V572.529H1218.62L1220.03 843.798ZM1511.75 843.798H1544.46L1547.19 638.514L1554.01 647.857C1561.2 657.713 1592.69 699.03 1614 726.566C1620.97 735.563 1637.4 757.033 1650.52 774.277C1663.65 791.521 1681.72 814.589 1690.69 825.54L1706.99 845.448L1732.58 843.798L1734 572.529H1698.5L1698.34 775.64L1690.93 767.202C1686.84 762.562 1676.76 749.871 1668.51 739.001C1660.27 728.129 1647.71 711.683 1640.6 702.455C1633.5 693.223 1615.71 670.115 1601.07 651.099C1586.43 632.085 1572 613.151 1569 609.026C1566 604.899 1558.27 594.999 1551.81 587.025C1540.23 572.72 1539.88 572.529 1525.21 572.529H1510.33L1511.75 843.798ZM654.319 619.092C654.319 620.711 651.336 629.607 647.691 638.858C644.046 648.111 636.628 667.337 631.208 681.582C625.788 695.827 618.956 713.229 616.025 720.255C606.714 742.578 604.757 741.561 657.045 741.561C693.872 741.561 703.393 740.814 703.393 737.922C703.393 735.92 698.417 722.12 692.335 707.25C677.926 672.032 663.343 633.094 661.023 623.648C659.245 616.417 654.319 613.069 654.319 619.092Z" fill="#E8E8E8"/>
</svg>
