<svg width="1304" height="115" viewBox="0 0 1304 115" fill="none" xmlns="http://www.w3.org/2000/svg">
<path d="M93.52 0.359993V115H78V62.84H16.16V115H0.640001V0.359993H16.16V51.48H78V0.359993H93.52ZM216.575 102.36L216.495 115H145.855V0.359993H216.495V13H161.375V51.08H206.015V63.24H161.375V102.36H216.575ZM322.106 72.44L304.106 25.8C303.573 24.4133 303.013 22.8133 302.426 21C301.839 19.1333 301.279 17.16 300.746 15.08C299.626 19.4 298.479 23 297.306 25.88L279.306 72.44H322.106ZM354.426 115H342.426C341.039 115 339.919 114.653 339.066 113.96C338.213 113.267 337.573 112.387 337.146 111.32L326.426 83.64H274.986L264.266 111.32C263.946 112.28 263.333 113.133 262.426 113.88C261.519 114.627 260.399 115 259.066 115H247.066L292.906 0.359993H308.586L354.426 115ZM424.295 55.88C428.775 55.88 432.721 55.3467 436.135 54.28C439.601 53.16 442.481 51.6133 444.775 49.64C447.121 47.6133 448.881 45.2133 450.055 42.44C451.228 39.6667 451.815 36.6 451.815 33.24C451.815 26.4133 449.575 21.2667 445.095 17.8C440.615 14.3333 433.895 12.6 424.935 12.6H407.975V55.88H424.295ZM477.255 115H463.495C460.668 115 458.588 113.907 457.255 111.72L427.495 70.76C426.588 69.48 425.601 68.5733 424.535 68.04C423.521 67.4533 421.921 67.16 419.735 67.16H407.975V115H392.535V0.359993H424.935C432.188 0.359993 438.455 1.10666 443.735 2.59999C449.015 4.04 453.361 6.14666 456.775 8.91999C460.241 11.6933 462.801 15.0533 464.455 19C466.108 22.8933 466.935 27.2667 466.935 32.12C466.935 36.1733 466.295 39.96 465.015 43.48C463.735 47 461.868 50.1733 459.415 53C457.015 55.7733 454.055 58.1467 450.535 60.12C447.068 62.0933 443.121 63.5867 438.695 64.6C440.668 65.72 442.375 67.3467 443.815 69.48L477.255 115ZM593.394 13.4H556.274V115H540.834V13.4H503.634V0.359993H593.394V13.4ZM780.317 0.359993V115H764.797V62.84H702.957V115H687.437V0.359993H702.957V51.48H764.797V0.359993H780.317ZM893.532 72.44L875.532 25.8C874.998 24.4133 874.438 22.8133 873.852 21C873.265 19.1333 872.705 17.16 872.172 15.08C871.052 19.4 869.905 23 868.732 25.88L850.732 72.44H893.532ZM925.852 115H913.852C912.465 115 911.345 114.653 910.492 113.96C909.638 113.267 908.998 112.387 908.572 111.32L897.852 83.64H846.412L835.692 111.32C835.372 112.28 834.758 113.133 833.852 113.88C832.945 114.627 831.825 115 830.492 115H818.492L864.332 0.359993H880.012L925.852 115ZM1057.16 0.359993L1010.44 115H996.52L949.8 0.359993H962.2C963.587 0.359993 964.707 0.70666 965.56 1.39999C966.414 2.09333 967.054 2.97333 967.48 4.03999L999.8 84.92C1000.49 86.7333 1001.16 88.7067 1001.8 90.84C1002.49 92.9733 1003.11 95.2133 1003.64 97.56C1004.17 95.2133 1004.73 92.9733 1005.32 90.84C1005.91 88.7067 1006.55 86.7333 1007.24 84.92L1039.48 4.03999C1039.8 3.13333 1040.41 2.30666 1041.32 1.55999C1042.28 0.759993 1043.43 0.359993 1044.76 0.359993H1057.16ZM1165.99 102.36L1165.91 115H1095.27V0.359993H1165.91V13H1110.79V51.08H1155.43V63.24H1110.79V102.36H1165.99ZM1303.52 0.359993V115H1295.76C1294.53 115 1293.49 114.787 1292.64 114.36C1291.84 113.933 1291.04 113.213 1290.24 112.2L1223.92 25.8C1224.03 27.1333 1224.11 28.44 1224.16 29.72C1224.21 31 1224.24 32.2 1224.24 33.32V115H1210.64V0.359993H1218.64C1219.33 0.359993 1219.92 0.413326 1220.4 0.519991C1220.88 0.573327 1221.31 0.70666 1221.68 0.919991C1222.05 1.07999 1222.43 1.34666 1222.8 1.72C1223.17 2.04 1223.57 2.46666 1224 2.99999L1290.32 89.32C1290.21 87.9333 1290.11 86.6 1290 85.32C1289.95 83.9867 1289.92 82.7333 1289.92 81.56V0.359993H1303.52Z" fill="white"/>
</svg>
