<svg xmlns="http://www.w3.org/2000/svg" width="866" height="436" viewBox="0 0 866 436" version="1.1"><path d="M 471.960 59.750 L 471.920 69.500 464.210 61.238 C 459.970 56.694, 455.760 52.981, 454.855 52.988 C 453.949 52.995, 449.232 57.612, 444.371 63.250 C 439.510 68.888, 434.626 74.431, 433.517 75.568 C 432.408 76.706, 427.900 81.851, 423.500 87.001 C 419.100 92.151, 411.980 100.389, 407.678 105.307 C 403.376 110.225, 399.438 115.347, 398.928 116.689 C 398.418 118.032, 398 127.709, 398 138.195 L 398 157.259 402.250 153.618 C 411.405 145.775, 424.276 141.534, 436.978 142.174 L 443.456 142.500 444.170 138.500 C 444.563 136.300, 444.911 131.869, 444.942 128.654 C 445.056 117.081, 449.291 106.778, 457.085 99.105 C 463.414 92.876, 470.412 90.085, 481.707 89.288 L 490 88.703 490 69.351 L 490 50 481 50 L 472 50 471.960 59.750" stroke="none" fill="#9b303b" fill-rule="evenodd"/><path d="M 453 51.186 C 453 51.838, 451.988 53.525, 450.750 54.936 L 448.500 57.500 451 55.399 C 452.375 54.243, 454.288 53.020, 455.250 52.680 C 457.636 51.838, 457.465 50, 455 50 C 453.900 50, 453 50.533, 453 51.186 M 445.230 60.551 C 444.012 61.404, 442.506 63.092, 441.882 64.301 C 441.066 65.885, 441.764 65.536, 444.375 63.054 C 447.728 59.867, 448.443 59, 447.723 59 C 447.570 59, 446.448 59.698, 445.230 60.551 M 464 60.658 C 464 61.190, 465.408 62.948, 467.130 64.563 C 469.364 66.660, 469.963 66.925, 469.222 65.489 C 467.930 62.983, 464 59.347, 464 60.658 M 491.370 70 C 491.370 75.775, 491.535 78.138, 491.737 75.250 C 491.939 72.362, 491.939 67.638, 491.737 64.750 C 491.535 61.862, 491.370 64.225, 491.370 70 M 435.408 72.250 C 432.645 75.138, 429.773 78.400, 429.027 79.500 C 427.632 81.554, 433.175 76.036, 438.318 70.250 C 442.855 65.146, 440.958 66.449, 435.408 72.250 M 86.706 80.627 C 86.318 81.015, 86 106.008, 86 136.167 L 86 191 94 191 L 102 191 102 166 L 102 141 131 141 L 160 141 160 166.042 L 160 191.084 167.750 190.792 L 175.500 190.500 175.777 137.500 C 175.929 108.350, 175.808 83.487, 175.508 82.250 C 175.002 80.166, 174.411 80, 167.481 80 L 160 80 160 104.500 L 160 129 131.018 129 L 102.036 129 101.768 104.750 L 101.500 80.500 94.456 80.210 C 90.582 80.051, 87.095 80.239, 86.706 80.627 M 261.667 80.667 C 261.300 81.033, 261 106.008, 261 136.167 L 261 191 295 191 L 329 191 329 184.500 L 329 178 302.977 178 L 276.955 178 277.227 159.750 L 277.500 141.500 298.500 141 L 319.500 140.500 319.500 135 L 319.500 129.500 298.227 129.230 L 276.954 128.960 277.227 111.230 L 277.500 93.500 303.250 93.233 L 329 92.966 329 86.483 L 329 80 295.667 80 C 277.333 80, 262.033 80.300, 261.667 80.667 M 574.750 80.555 C 574.337 80.983, 574 106.008, 574 136.167 L 574 191 581.481 191 L 588.962 191 589.231 168.250 L 589.500 145.500 596.185 145.206 C 602.318 144.936, 603.119 145.142, 605.889 147.706 C 608.584 150.200, 621.350 167.175, 629.318 178.861 C 630.954 181.260, 633.957 184.973, 635.991 187.111 C 639.669 190.978, 639.735 191, 647.452 191 C 654.008 191, 655.123 190.762, 654.627 189.470 C 653.997 187.830, 651.193 183.924, 632.466 158.612 L 620.431 142.346 624.966 140.530 C 631.037 138.099, 637.909 132.752, 641.147 127.940 C 644.760 122.571, 646.274 113.404, 644.935 105 C 643.184 94.003, 637.600 87.834, 625.236 83.238 C 619.024 80.929, 616.826 80.697, 597 80.256 C 585.175 79.992, 575.163 80.127, 574.750 80.555 M 719.204 86.750 L 719.500 93.500 737.250 93.773 L 755 94.046 755 142.523 L 755 191 762.500 191 L 770 191 770 142.500 L 770 94 787.500 94 L 805 94 805 87 L 805 80 761.954 80 L 718.909 80 719.204 86.750 M 423.435 86.250 C 417.536 92.547, 414.592 96, 415.122 96 C 415.381 96, 418.413 92.850, 421.860 89 C 428.719 81.339, 429.795 79.461, 423.435 86.250 M 480.750 89.723 C 482.538 89.945, 485.462 89.945, 487.250 89.723 C 489.038 89.502, 487.575 89.320, 484 89.320 C 480.425 89.320, 478.962 89.502, 480.750 89.723 M 589.750 93.565 C 588.686 94.655, 588.845 131.207, 589.921 132.906 C 590.644 134.048, 592.941 134.183, 602.135 133.624 C 615.612 132.806, 622.083 130.379, 626.607 124.449 C 629.101 121.178, 629.546 119.612, 629.834 113.078 C 630.125 106.476, 629.867 105.049, 627.833 102 C 626.490 99.988, 623.377 97.449, 620.511 96.029 C 616.194 93.890, 613.845 93.508, 603.012 93.178 C 596.131 92.969, 590.163 93.143, 589.750 93.565 M 458.980 97.288 C 457.044 99.054, 454.354 101.850, 453.003 103.500 C 451.651 105.150, 453.348 103.814, 456.773 100.531 C 462.406 95.132, 463.520 93.922, 462.750 94.038 C 462.613 94.058, 460.916 95.521, 458.980 97.288 M 474.500 95.343 C 467.655 97.604, 464.465 99.711, 459.252 105.415 C 452.504 112.798, 451.010 117.515, 450.291 133.711 L 449.704 146.922 445.602 147.420 C 443.346 147.693, 436.682 148.112, 430.793 148.349 C 418.082 148.861, 413.397 150.698, 406.037 158.058 C 400.089 164.006, 397.997 169.707, 398.010 179.928 C 398.017 185.752, 398.559 188.659, 400.357 192.520 C 403.116 198.445, 411.554 206.437, 416.831 208.123 C 419.011 208.819, 430.087 209.475, 444.119 209.738 L 467.737 210.181 468.182 190.752 C 468.570 173.850, 468.880 170.891, 470.564 168.009 C 472.868 164.065, 478.793 160.731, 482.699 161.179 C 485.362 161.484, 485.264 161.616, 480.698 163.864 C 472.729 167.788, 472.569 168.332, 472.144 192.831 L 471.772 214.274 474.461 213.599 C 477.943 212.725, 503.373 210.025, 508.250 210.011 L 512 210 512 166.640 C 512 142.791, 511.712 121.179, 511.360 118.611 C 510.453 111.989, 505.451 104.145, 499.671 100.277 C 491.788 95.002, 481.586 93.002, 474.500 95.343 M 411.085 100.250 C 409.450 102.037, 405.516 106.342, 402.341 109.816 L 396.569 116.132 396.239 128.816 C 396.058 135.792, 396.267 145.681, 396.705 150.791 L 397.500 160.082 403 154.368 L 408.500 148.654 403.500 152.811 L 398.500 156.968 398.206 139.234 C 398.044 129.480, 398.170 120.076, 398.485 118.335 C 398.855 116.294, 401.908 111.946, 407.086 106.085 C 411.501 101.088, 414.876 97, 414.585 97 C 414.294 97, 412.719 98.463, 411.085 100.250 M 444.942 127.750 C 444.911 131.463, 444.564 136.300, 444.173 138.500 L 443.460 142.500 435.603 142.140 C 430.024 141.885, 427.945 142.102, 428.432 142.890 C 428.847 143.561, 432.453 144, 437.559 144 L 446 144 446 132.500 C 446 126.175, 445.775 121, 445.500 121 C 445.225 121, 444.974 124.037, 444.942 127.750 M 420.358 165.928 C 416.616 168.204, 413 172.676, 413 175.028 C 413 177.279, 414.961 178, 421.082 178 L 426 178 426 172.122 C 426 164.820, 424.639 163.325, 420.358 165.928 M 430 171.548 L 430 178.095 436.250 177.798 C 441.801 177.533, 442.535 177.256, 442.810 175.320 C 443.283 172.004, 436.546 165, 432.884 165 L 430 165 430 171.548 M 415.250 181.706 C 413.890 181.968, 413 182.866, 413 183.977 C 413 186.088, 422.736 195.253, 424.397 194.705 C 425.012 194.502, 425.631 191.393, 425.796 187.670 L 426.091 181 421.796 181.136 C 419.433 181.211, 416.488 181.467, 415.250 181.706 M 430 187.408 C 430 192.509, 430.364 194.202, 431.557 194.660 C 433.416 195.374, 439.844 190.459, 441.985 186.687 C 444.024 183.097, 442.481 181.787, 435.535 181.211 L 430 180.752 430 187.408 M 159.241 309.750 L 159.500 359.500 166.250 359.796 L 173 360.091 173.015 338.296 C 173.024 326.308, 173.393 315.930, 173.835 315.232 C 174.458 314.252, 180.392 314.025, 200.070 314.232 L 225.500 314.500 225.769 337.250 L 226.038 360 233.019 360 L 240 360 240 310 L 240 260 233 260 L 226 260 226 282.017 L 226 304.033 199.750 303.767 L 173.500 303.500 173.230 281.750 L 172.961 260 165.971 260 L 158.981 260 159.241 309.750 M 315.151 271.222 C 312.759 277.425, 309.746 284.975, 308.456 288 C 305.530 294.859, 288.259 338.103, 286.318 343.431 C 285.530 345.593, 284.011 349.281, 282.943 351.626 C 281.874 353.971, 281 356.815, 281 357.945 C 281 359.748, 281.622 360, 286.066 360 C 294.269 360, 295.203 359.007, 300.109 345.060 C 301.162 342.068, 302.780 337.905, 303.704 335.810 L 305.385 332 326.942 332.001 L 348.500 332.001 353 343.664 C 359.037 359.309, 359.632 360, 367.073 360 C 371.572 360, 373 359.652, 373 358.556 C 373 357.762, 371.373 353.149, 369.384 348.306 C 367.395 343.463, 364.742 336.800, 363.487 333.500 C 362.232 330.200, 359.777 324.125, 358.033 320 C 356.288 315.875, 354.489 311.317, 354.035 309.872 C 353.581 308.426, 352.513 305.726, 351.662 303.872 C 350.810 302.017, 348.500 296.225, 346.529 291 C 344.557 285.775, 342.071 279.475, 341.006 277 C 339.941 274.525, 337.970 269.800, 336.627 266.500 L 334.185 260.500 326.843 260.222 L 319.500 259.944 315.151 271.222 M 402.008 262.750 C 402.486 264.262, 406.552 274.500, 411.043 285.500 C 415.534 296.500, 422.099 312.700, 425.632 321.500 C 429.165 330.300, 432.704 338.850, 433.497 340.500 C 435.146 343.927, 439.877 355.611, 440.703 358.293 C 441.173 359.817, 442.225 360.042, 447.732 359.793 L 454.208 359.500 455.978 355 C 456.951 352.525, 459.173 347.125, 460.915 343 C 462.657 338.875, 465.679 331.450, 467.631 326.500 C 469.582 321.550, 471.791 316.150, 472.540 314.500 C 473.289 312.850, 474.864 309.025, 476.039 306 C 478.765 298.988, 481.154 293.051, 484.287 285.500 C 491.493 268.137, 494 261.798, 494 260.944 C 494 260.425, 490.958 260, 487.241 260 C 481.806 260, 480.260 260.354, 479.353 261.806 C 478.447 263.257, 452.864 327.199, 448.699 338.422 L 447.615 341.344 446.694 338.422 C 445.414 334.361, 435.247 308.157, 433.533 304.500 C 432.759 302.850, 428.670 292.725, 424.445 282 C 420.221 271.275, 416.312 261.938, 415.760 261.250 C 415.134 260.471, 412.191 260, 407.947 260 L 401.140 260 402.008 262.750 M 533.241 309.750 L 533.500 359.500 564.250 359.764 L 595 360.029 595 354.014 L 595 348 571.500 348 L 548 348 548 331.500 L 548 315 567 315 L 586 315 586 309.500 L 586 304 567 304 L 548 304 548 287.500 L 548 271 571.500 271 L 595 271 595 265.500 L 595 260 563.991 260 L 532.981 260 533.241 309.750 M 640.241 309.750 L 640.500 359.500 646.500 359.500 L 652.500 359.500 653 321.852 L 653.500 284.203 656 287.630 C 658.638 291.245, 670.190 306.400, 678.006 316.500 C 680.560 319.800, 686.588 327.675, 691.402 334 C 696.216 340.325, 702.845 348.786, 706.133 352.803 L 712.112 360.105 716.806 359.803 L 721.500 359.500 721.759 309.750 L 722.019 260 715.509 260 L 709 260 708.971 297.250 L 708.941 334.500 706.221 331.405 C 704.724 329.703, 701.025 325.048, 698 321.061 C 694.975 317.073, 690.368 311.041, 687.762 307.656 C 685.157 304.270, 678.632 295.794, 673.262 288.819 C 667.893 281.845, 662.600 274.900, 661.500 273.387 C 660.400 271.873, 657.563 268.242, 655.195 265.317 C 650.947 260.070, 650.818 260, 645.436 260 L 639.981 260 640.241 309.750 M 326 277.079 C 326 277.673, 324.906 280.936, 323.569 284.329 C 322.232 287.723, 319.511 294.775, 317.523 300 C 315.535 305.225, 313.029 311.608, 311.954 314.185 C 308.539 322.373, 307.821 322, 327 322 C 340.508 322, 344 321.726, 344 320.665 C 344 319.931, 342.175 314.869, 339.944 309.415 C 334.659 296.497, 329.310 282.215, 328.459 278.750 C 327.807 276.098, 326 274.870, 326 277.079" stroke="none" fill="#bd525a" fill-rule="evenodd"/></svg>