<svg xmlns="http://www.w3.org/2000/svg" width="1118" height="554" viewBox="0 0 1118 554" version="1.1"><path d="M 560.320 48.750 C 559.980 49.712, 558.758 51.625, 557.605 53 C 555.850 55.092, 556.024 55.033, 558.672 52.641 C 560.413 51.068, 562.293 50.063, 562.850 50.407 C 563.406 50.751, 564.176 50.525, 564.559 49.905 C 564.942 49.284, 564.636 48.384, 563.878 47.904 C 561.833 46.608, 561.006 46.805, 560.320 48.750 M 583 58.597 L 583 70.193 578.416 65.347 L 573.833 60.500 578.166 65.750 C 580.550 68.637, 582.837 70.999, 583.250 71 C 583.663 71, 584 65.825, 584 59.500 L 584 48 595 48 L 606 48 606 71.934 L 606 95.867 603.750 96.280 C 601.792 96.639, 601.825 96.680, 604 96.596 C 606.359 96.505, 606.547 96.076, 607.323 89 C 608.175 81.234, 607.523 49.655, 606.476 47.961 C 606.149 47.432, 600.734 47, 594.441 47 L 583 47 583 58.597 M 532.500 81 C 529.961 84.300, 528.034 87, 528.219 87 C 528.404 87, 530.932 84.300, 533.837 81 C 536.741 77.700, 538.668 75, 538.117 75 C 537.567 75, 535.039 77.700, 532.500 81 M 81.667 78.667 C 80.741 79.593, 80.824 223, 81.750 223 C 82.162 223, 82.500 190.713, 82.500 151.250 L 82.500 79.500 91.750 79.212 L 101 78.925 101 110.403 C 101 127.717, 101.338 142.091, 101.750 142.346 C 102.162 142.601, 102.375 128.228, 102.223 110.405 L 101.946 78 92.140 78 C 86.746 78, 82.033 78.300, 81.667 78.667 M 178.998 78.714 C 178.997 79.146, 183.269 79.357, 188.491 79.182 L 197.987 78.863 198.253 150.682 L 198.520 222.500 198.510 150.500 L 198.500 78.500 188.750 78.214 C 183.387 78.056, 178.999 78.281, 178.998 78.714 M 311.240 150.750 L 311.480 223.500 311.990 151.500 L 312.500 79.500 356.500 78.984 L 400.500 78.468 355.750 78.234 L 311 78 311.240 150.750 M 721.607 79.582 C 721.273 80.452, 721.108 112.964, 721.240 151.832 L 721.480 222.500 721.990 151 L 722.500 79.500 750 79.570 C 765.125 79.609, 776.150 79.324, 774.500 78.938 C 772.850 78.552, 760.411 78.183, 746.857 78.118 C 725.238 78.015, 722.139 78.194, 721.607 79.582 M 911.667 78.667 C 910.762 79.571, 910.846 93.209, 911.765 94.658 C 912.169 95.295, 912.500 92.145, 912.500 87.658 L 912.500 79.500 968.750 79.500 C 999.688 79.500, 1025 79.162, 1025 78.750 C 1025 77.824, 912.592 77.741, 911.667 78.667 M 400.189 86.750 L 400 94 366.622 94 C 339.517 94, 333.030 94.258, 332.103 95.375 C 331.303 96.340, 331.042 103.593, 331.231 119.625 L 331.500 142.500 359.293 142.766 L 387.087 143.032 386.793 150.266 L 386.500 157.500 359 158 L 331.500 158.500 331.472 182.251 L 331.445 206.001 331.740 182.501 L 332.036 159 359.499 159 L 386.962 159 387.537 156.708 C 387.853 155.448, 387.974 151.735, 387.806 148.458 L 387.500 142.500 359.750 142.234 L 332 141.968 332 118.984 L 332 96 365.981 96 L 399.962 96 400.537 93.708 C 400.853 92.448, 400.947 88.735, 400.745 85.458 L 400.378 79.500 400.189 86.750 M 521.348 93.750 C 518.492 96.823, 514.660 102, 515.241 102 C 515.449 102, 517.755 99.525, 520.367 96.500 C 525.219 90.880, 525.969 88.779, 521.348 93.750 M 744 94.617 C 749.291 95.289, 772.845 95.465, 771.217 94.820 C 770.272 94.446, 763.200 94.176, 755.500 94.220 C 747.800 94.264, 742.625 94.443, 744 94.617 M 958.471 159.500 C 958.471 194.700, 958.597 208.955, 958.750 191.178 C 958.903 173.400, 958.903 144.600, 958.749 127.178 C 958.596 109.755, 958.471 124.300, 958.471 159.500 M 978.471 159.500 C 978.471 194.700, 978.597 208.955, 978.750 191.178 C 978.903 173.400, 978.903 144.600, 978.749 127.178 C 978.596 109.755, 978.471 124.300, 978.471 159.500 M 588.500 103.411 C 580.869 105.305, 573.934 109.292, 568.948 114.650 C 559.291 125.031, 557.163 131.606, 556.296 153.750 L 555.699 169 548.099 169.016 C 531.806 169.051, 517.977 170.776, 512.496 173.458 C 506.123 176.576, 496.665 186.290, 493.739 192.721 C 490.744 199.307, 490.570 216.078, 493.420 223.500 C 495.972 230.145, 505.553 240.131, 512.062 242.932 C 518.675 245.776, 531.858 246.943, 557.750 246.974 L 579 247 579.044 225.250 C 579.068 213.287, 579.463 201.557, 579.922 199.182 C 581.373 191.671, 588.695 185.946, 596.718 186.048 L 600.500 186.096 595 188.949 C 585.586 193.831, 585.087 194.769, 584.002 209.593 C 583.483 216.692, 583.045 228.975, 583.029 236.889 L 583 251.279 588.250 250.637 C 591.138 250.284, 600.700 249.304, 609.500 248.459 C 618.300 247.614, 627.413 246.688, 629.750 246.400 L 634 245.877 633.947 200.689 C 633.880 143.328, 633.229 131.365, 629.767 123.801 C 625.120 113.652, 616.359 107.134, 602.540 103.547 C 595.651 101.759, 595.175 101.754, 588.500 103.411 M 566.205 107.810 C 563.342 110.456, 561 113.028, 561 113.526 C 561 114.024, 563.475 111.987, 566.500 109 C 569.525 106.013, 572 103.440, 572 103.284 C 572 102.585, 571.091 103.296, 566.205 107.810 M 506.462 111.121 C 503.733 113.938, 501.967 116.075, 502.538 115.871 C 503.626 115.482, 512.561 106, 511.840 106 C 511.612 106, 509.192 108.305, 506.462 111.121 M 795 120.500 C 795 123.324, 795.388 124.878, 796 124.500 C 796.550 124.160, 797 122.360, 797 120.500 C 797 118.640, 796.550 116.840, 796 116.500 C 795.388 116.122, 795 117.676, 795 120.500 M 494.627 124.870 C 492.389 127.161, 490.481 130.323, 489.948 132.620 C 488.947 136.935, 488.907 158.960, 489.873 174.796 L 490.500 185.092 495.462 180.046 C 501.105 174.308, 501.077 173.568, 495.388 178.090 L 491.500 181.181 491.202 159.340 C 490.832 132.219, 491.125 129.974, 495.689 124.922 C 500.249 119.875, 499.539 119.840, 494.627 124.870 M 550.007 145 C 549.993 149.125, 549.694 154.901, 549.342 157.836 L 548.701 163.173 542.100 162.558 C 533.934 161.797, 530.395 163.409, 538.180 164.344 C 541.106 164.695, 545.413 164.987, 547.750 164.991 L 552 165 551.985 152.750 C 551.976 146.012, 551.533 139.825, 551 139 C 550.326 137.957, 550.023 139.786, 550.007 145 M 773.646 146.687 C 773.268 147.065, 765.881 147.695, 757.229 148.086 L 741.500 148.798 757 148.540 C 765.525 148.398, 773.625 147.797, 775 147.204 C 776.494 146.560, 776.863 146.101, 775.917 146.063 C 775.046 146.029, 774.024 146.309, 773.646 146.687 M 102.200 158.200 C 101.307 159.093, 101.059 167.593, 101.229 191.450 L 101.458 223.500 101.979 191 L 102.500 158.500 140.750 158.500 C 161.788 158.500, 179 158.162, 179 157.750 C 179 157.338, 161.990 157, 141.200 157 C 113.133 157, 103.091 157.309, 102.200 158.200 M 742.500 163 C 742.106 163.638, 745.069 163.994, 750.691 163.985 C 756.748 163.974, 759.031 163.667, 758 163 C 756.018 161.719, 743.292 161.719, 742.500 163 M 515.348 195.348 C 506.938 203.758, 508.529 207, 521.065 207 L 527 207 526.994 202.250 C 526.991 199.637, 526.520 195.813, 525.947 193.750 C 524.469 188.428, 521.877 188.819, 515.348 195.348 M 532.200 191.200 C 531.483 191.917, 531 195.380, 531 199.809 L 531 207.219 538.468 206.841 C 542.575 206.634, 546.443 205.957, 547.064 205.336 C 548.717 203.683, 545.659 197.828, 540.894 193.523 C 536.833 189.854, 534.239 189.161, 532.200 191.200 M 400.349 215 C 400.349 219.675, 400.522 221.588, 400.732 219.250 C 400.943 216.912, 400.943 213.088, 400.732 210.750 C 400.522 208.412, 400.349 210.325, 400.349 215 M 511.441 212.434 C 509.604 213.791, 509.588 214.019, 511.147 216.684 C 513.194 220.183, 522.799 228.234, 524.322 227.726 C 525.903 227.199, 526.784 223.447, 526.900 216.750 L 527 211 520.191 211 C 515.847 211, 512.680 211.519, 511.441 212.434 M 531 218.268 C 531 230.177, 534.202 230.837, 543.542 220.851 C 545.994 218.230, 547.993 215.729, 547.985 215.293 C 547.931 212.502, 545.696 211.524, 538.550 211.163 L 531 210.781 531 218.268 M 177 379.500 C 177 415.525, 177.338 445, 177.750 445 C 178.162 445, 178.381 415.750, 178.236 380 L 177.971 315 186.486 315 L 195 315 195 342.941 C 195 358.309, 195.338 371.091, 195.750 371.347 C 196.531 371.830, 196.300 317.445, 195.512 315.250 C 195.198 314.375, 192.350 314, 186.031 314 L 177 314 177 379.500 M 265.452 315.263 C 265.186 315.958, 265.095 329.121, 265.250 344.513 L 265.533 372.500 265.766 343.750 L 266 315 274.493 315 L 282.986 315 283.250 380.250 L 283.515 445.500 283.757 379.750 L 284 314 274.969 314 C 268.615 314, 265.793 314.375, 265.452 315.263 M 387.655 314.750 C 387.400 315.163, 391.830 315.500, 397.500 315.500 C 403.170 315.500, 407.600 315.163, 407.345 314.750 C 407.091 314.337, 402.660 314, 397.500 314 C 392.340 314, 387.909 314.337, 387.655 314.750 M 494.657 314.750 C 494.403 315.163, 498.610 315.500, 504.005 315.500 C 509.401 315.500, 513.294 315.169, 512.658 314.765 C 511.132 313.797, 495.251 313.783, 494.657 314.750 M 599.651 314.750 C 599.394 315.163, 603.029 315.353, 607.729 315.173 C 615.963 314.857, 616.254 314.921, 615.730 316.924 C 615.431 318.067, 615.595 318.751, 616.093 318.442 C 616.592 318.134, 617 317.009, 617 315.941 C 617 314.173, 616.248 314, 608.559 314 C 603.916 314, 599.908 314.337, 599.651 314.750 M 668 379.500 C 668 415.525, 668.337 445, 668.750 445 C 669.163 445, 669.381 415.755, 669.236 380.012 L 668.971 315.023 709.236 314.750 L 749.500 314.477 708.750 314.238 L 668 314 668 379.500 M 808.667 314.667 C 807.545 315.788, 807.874 443.804, 809 444.500 C 809.663 444.910, 810 423.192, 810 380.105 L 810 315.091 816.750 314.742 L 823.500 314.392 816.417 314.196 C 812.521 314.088, 809.033 314.300, 808.667 314.667 M 906.250 314.721 L 914 315.084 914.030 380.292 C 914.050 423.232, 914.394 444.928, 915.038 443.826 C 915.654 442.770, 915.920 418.552, 915.757 378.326 L 915.500 314.500 907 314.429 L 898.500 314.358 906.250 314.721 M 686.230 350.250 L 686.500 371.500 712 371.535 L 737.500 371.570 712.500 371.035 L 687.500 370.500 687.500 349.749 C 687.500 338.337, 687.154 328.999, 686.730 328.999 C 686.307 329, 686.082 338.563, 686.230 350.250 M 195.679 385.654 C 195.306 386.028, 195.102 399.646, 195.227 415.917 L 195.454 445.500 195.977 416 L 196.500 386.500 230.735 386.237 L 264.970 385.974 265.257 415.237 L 265.545 444.500 265.522 415 L 265.500 385.500 230.929 385.237 C 211.916 385.093, 196.053 385.280, 195.679 385.654 M 687.250 385.662 C 686.303 386.044, 686 391.486, 686 408.083 C 686 420.137, 686.337 430, 686.750 430.001 C 687.163 430.001, 687.500 420.214, 687.500 408.251 L 687.500 386.500 712.500 385.974 L 737.500 385.447 713 385.303 C 699.525 385.223, 687.938 385.385, 687.250 385.662 M 374.257 394 C 374.602 395.266, 378.153 395.542, 397.013 395.770 C 409.304 395.918, 419.708 395.693, 420.132 395.270 C 420.556 394.846, 410.725 394.629, 398.284 394.787 C 380.713 395.011, 375.461 394.787, 374.756 393.787 C 374.061 392.802, 373.944 392.852, 374.257 394 M 368.250 409.496 C 366.267 411.748, 366.791 412.183, 369.415 410.464 C 371.501 409.097, 375.580 408.924, 399.321 409.191 C 414.441 409.361, 426.602 409.163, 426.347 408.750 C 426.091 408.337, 413.196 408.017, 397.691 408.038 C 374.629 408.069, 369.273 408.334, 368.250 409.496" stroke="none" fill="#ca4f57" fill-rule="evenodd"/><path d="M 584 59.500 C 584 70.930, 583.380 72.801, 580.807 69.142 C 578.094 65.286, 565.469 51.786, 563.678 50.828 C 562.224 50.050, 561.257 50.345, 559.305 52.164 C 551.791 59.165, 493.334 127.624, 492.232 130.712 C 491.313 133.289, 491.038 140.729, 491.232 157.771 L 491.500 181.276 498.500 175.499 C 510.225 165.824, 519.787 162.775, 538.630 162.705 L 548.761 162.667 549.372 157.583 C 549.708 154.787, 549.987 149.566, 549.991 145.980 C 550.006 134.777, 554.712 120.974, 561.321 112.750 C 570.776 100.985, 581.856 96.626, 603.750 96.058 L 606 96 606 72 L 606 48 595 48 L 584 48 584 59.500 M 82.460 80.250 C 82.197 80.938, 82.099 113.225, 82.241 152 L 82.500 222.500 91.750 222.788 L 101 223.075 101 191.238 C 101 167.808, 101.317 159.083, 102.200 158.200 C 103.091 157.309, 113.133 157, 141.200 157 L 179 157 179 190 L 179 223 188.500 223 L 198 223 198 150.962 L 198 78.925 188.750 79.212 L 179.500 79.500 179.236 111.262 L 178.972 143.023 140.236 142.762 L 101.500 142.500 101.236 110.750 L 100.972 79 91.955 79 C 85.662 79, 82.793 79.378, 82.460 80.250 M 312.667 79.667 C 312.300 80.033, 312 112.433, 312 151.667 L 312 223 356 223 L 400 223 400 215.013 L 400 207.026 365.750 206.763 L 331.500 206.500 331.500 182.500 L 331.500 158.500 359 158 L 386.500 157.500 386.793 150.266 L 387.087 143.032 359.293 142.766 L 331.500 142.500 331.231 119.625 C 331.042 103.593, 331.303 96.340, 332.103 95.375 C 333.030 94.258, 339.517 94, 366.622 94 L 400 94 400 86.500 L 400 79 356.667 79 C 332.833 79, 313.033 79.300, 312.667 79.667 M 722.750 79.539 C 722.337 79.976, 722 112.433, 722 151.667 L 722 223 731.985 223 L 741.971 223 742.235 192.750 L 742.500 162.500 748.836 162.200 C 758.211 161.756, 763.201 163.994, 768.283 170.922 C 770.533 173.990, 772.740 176.650, 773.187 176.833 C 773.634 177.017, 774 177.595, 774 178.119 C 774 178.913, 785.101 194.707, 788.477 198.715 C 789.039 199.384, 790.063 200.602, 790.750 201.423 C 791.438 202.244, 792 203.385, 792 203.958 C 792 204.531, 792.348 205, 792.773 205 C 793.198 205, 794.393 206.575, 795.430 208.500 C 796.467 210.425, 797.708 212, 798.189 212 C 798.670 212, 799.363 212.787, 799.731 213.750 C 800.098 214.713, 800.768 215.950, 801.218 216.500 C 806.434 222.868, 805.381 222.447, 817.072 222.847 C 823.083 223.053, 828 222.829, 828 222.350 C 828 221.871, 826.875 220.266, 825.500 218.783 C 824.125 217.301, 823 215.811, 823 215.472 C 823 215.134, 822.438 214.230, 821.750 213.463 C 818.818 210.193, 818 209.030, 818 208.126 C 818 207.598, 817.625 207.017, 817.166 206.833 C 816.151 206.427, 805 191.384, 805 190.421 C 805 190.043, 804.206 189.007, 803.236 188.117 C 802.266 187.228, 800.354 184.816, 798.986 182.757 C 797.619 180.698, 796.163 179.011, 795.750 179.007 C 795.337 179.003, 795 178.518, 795 177.929 C 795 177.339, 794.438 176.230, 793.750 175.463 C 790.818 172.193, 790 171.030, 790 170.126 C 790 169.598, 789.659 169.017, 789.243 168.833 C 788.199 168.374, 781.670 159.964, 782.129 159.671 C 782.333 159.540, 783.850 158.845, 785.500 158.124 C 787.150 157.404, 789.774 156.182, 791.331 155.407 C 792.888 154.633, 794.572 154, 795.073 154 C 796.845 154, 808 143.759, 808 142.132 C 808 141.509, 808.363 141, 808.808 141 C 809.803 141, 813 133.925, 813 131.723 C 813 130.840, 813.450 129.840, 814 129.500 C 814.563 129.152, 815 124.323, 815 118.441 C 815 112.147, 814.603 108, 814 108 C 813.450 108, 813 107.082, 813 105.960 C 813 100.033, 804.403 89.927, 795.672 85.591 C 785.835 80.706, 780.447 79.950, 751 79.326 C 735.875 79.006, 723.163 79.101, 722.750 79.539 M 912.675 79.658 C 911.835 80.498, 911.781 92.266, 912.607 94.418 C 913.136 95.797, 916.154 96, 936.107 96 L 959 96 959 159.500 L 959 223 968.500 223 L 978 223 978 159.500 L 978 96 1000.981 96 L 1023.962 96 1024.537 93.708 C 1024.853 92.448, 1024.974 88.735, 1024.806 85.458 L 1024.500 79.500 968.925 79.242 C 938.359 79.100, 913.046 79.287, 912.675 79.658 M 742 121.500 L 742 149 753.864 149 C 770.705 149, 778.508 147.217, 786.281 141.591 C 790.007 138.894, 795 130.951, 795 127.721 C 795 126.290, 795.450 124.840, 796 124.500 C 796.550 124.160, 797 122.360, 797 120.500 C 797 118.640, 796.550 116.840, 796 116.500 C 795.450 116.160, 795 114.543, 795 112.906 C 795 108.304, 790.849 102.627, 785.388 99.760 C 776.806 95.254, 770.185 94, 754.986 94 L 742 94 742 121.500 M 178.243 379.750 L 178.500 444.500 186.735 444.790 L 194.970 445.080 195.235 415.290 L 195.500 385.500 230.500 385.500 L 265.500 385.500 265.765 415.250 L 266.030 445 274.515 445 L 283 445 283 380 L 283 315 274.500 315 L 266 315 266 343.513 L 266 372.026 230.750 371.763 L 195.500 371.500 195.234 343.250 L 194.969 315 186.477 315 L 177.985 315 178.243 379.750 M 387.378 316.750 C 387.070 317.712, 386.440 319.400, 385.977 320.500 C 384.462 324.101, 382.304 329.418, 380.499 334 C 379.524 336.475, 377.888 340.408, 376.863 342.739 C 375.838 345.071, 375 347.253, 375 347.588 C 375 347.923, 374.287 349.841, 373.417 351.849 C 372.546 353.857, 371.196 356.978, 370.417 358.784 C 369.637 360.590, 369 362.728, 369 363.534 C 369 364.340, 368.606 365, 368.125 365 C 367.644 365, 366.981 366.347, 366.651 367.994 C 366.322 369.641, 365.141 372.875, 364.026 375.182 C 362.912 377.488, 362 379.786, 362 380.287 C 362 380.788, 361.325 382.728, 360.500 384.599 C 358.328 389.523, 356.485 394.007, 354.990 398 C 354.269 399.925, 353.302 401.928, 352.840 402.450 C 352.378 402.973, 351.997 404.098, 351.994 404.950 C 351.990 405.803, 351.315 407.789, 350.494 409.364 C 349.672 410.940, 349 412.852, 349 413.614 C 349 414.376, 348.550 415, 348 415 C 347.450 415, 347 415.719, 347 416.599 C 347 417.478, 346.367 419.616, 345.594 421.349 C 344.821 423.082, 343.382 426.750, 342.396 429.500 C 341.410 432.250, 340.309 434.725, 339.950 435 C 339.592 435.275, 339.042 436.625, 338.730 438 C 338.417 439.375, 337.848 441.512, 337.464 442.750 C 336.791 444.922, 336.989 445, 343.184 445 C 350.294 445, 354.443 443.527, 355.860 440.500 C 358.728 434.372, 360 431.024, 360 429.599 C 360 428.719, 360.450 428, 361 428 C 361.550 428, 362 427.151, 362 426.114 C 362 425.077, 362.672 422.940, 363.494 421.364 C 364.315 419.789, 364.990 417.712, 364.994 416.750 C 364.997 415.788, 365.450 415, 366 415 C 366.550 415, 367 414.068, 367 412.929 C 367 408.086, 367.903 407.950, 398.194 408.234 L 426.500 408.500 427.457 411.750 C 427.983 413.538, 428.771 415, 429.207 415 C 429.643 415, 430 416.125, 430 417.500 C 430 418.875, 430.410 420, 430.912 420 C 431.414 420, 432.128 421.800, 432.500 424 C 432.872 426.200, 433.477 428, 433.844 428 C 434.212 428, 435.108 429.913, 435.834 432.250 C 437.904 438.910, 440.103 443, 441.614 443 C 442.376 443, 443 443.450, 443 444 C 443 444.578, 446.167 445, 450.500 445 C 458.384 445, 459.262 444.365, 457.084 440.236 C 454.979 436.246, 453 431.091, 453 429.599 C 453 428.719, 452.660 428, 452.245 428 C 451.489 428, 449.396 422.708, 448.290 418 C 447.966 416.625, 447.408 415.275, 447.050 415 C 446.691 414.725, 445.591 412.250, 444.606 409.500 C 443.621 406.750, 441.731 402.125, 440.407 399.223 C 439.083 396.320, 438 393.373, 438 392.673 C 438 391.973, 437.631 390.972, 437.181 390.450 C 436.730 389.928, 435.096 386.125, 433.550 382 C 432.004 377.875, 430.069 372.925, 429.251 371 C 426.880 365.423, 425.396 361.756, 423.990 358 C 423.269 356.075, 422.302 354.072, 421.840 353.550 C 421.378 353.028, 421 351.971, 421 351.201 C 421 350.432, 420.287 348.159, 419.417 346.151 C 418.546 344.143, 417.196 341.022, 416.417 339.216 C 415.637 337.410, 415 335.272, 415 334.466 C 415 333.660, 414.550 333, 414 333 C 413.450 333, 413 332.340, 413 331.534 C 413 330.728, 412.263 328.365, 411.361 326.284 C 409.465 321.905, 408.409 319.212, 407.622 316.750 C 407.141 315.244, 405.728 315, 397.500 315 C 389.272 315, 387.859 315.244, 387.378 316.750 M 495.710 317 C 495.998 318.100, 496.631 319, 497.117 319 C 497.602 319, 498 319.719, 498 320.599 C 498 322.040, 499.879 326.995, 501.957 331.033 C 502.391 331.876, 503.064 334.013, 503.452 335.783 C 503.841 337.552, 504.573 339, 505.079 339 C 505.586 339, 506 340.125, 506 341.500 C 506 342.875, 506.414 344, 506.921 344 C 507.427 344, 508.159 345.448, 508.548 347.217 C 508.936 348.987, 509.597 351.124, 510.016 351.967 C 510.900 353.746, 513.343 359.389, 514.793 363 C 515.345 364.375, 516.517 367.143, 517.398 369.151 C 518.279 371.159, 519 373.522, 519 374.401 C 519 375.281, 519.450 376, 520 376 C 520.550 376, 521 376.660, 521 377.466 C 521 378.886, 521.477 380.125, 525.919 390.239 C 527.063 392.846, 528 395.233, 528 395.544 C 528 395.855, 528.925 398.223, 530.055 400.805 C 531.185 403.387, 532.474 406.400, 532.921 407.500 C 535.592 414.083, 536.324 415.779, 537.593 418.331 C 538.367 419.888, 539 422.026, 539 423.081 C 539 424.136, 539.357 425, 539.793 425 C 540.229 425, 541.445 427.587, 542.496 430.750 C 543.546 433.913, 544.764 437.175, 545.203 438 C 545.641 438.825, 546.445 440.756, 546.991 442.292 C 547.974 445.061, 548.047 445.082, 555.741 444.792 C 562.685 444.531, 563.604 444.264, 564.487 442.250 C 565.030 441.012, 565.818 440, 566.237 440 C 566.657 440, 567 439.112, 567 438.027 C 567 436.942, 568.163 433.455, 569.585 430.277 C 574.278 419.788, 575 417.947, 575 416.466 C 575 415.660, 575.450 415, 576 415 C 576.550 415, 577 414.281, 577 413.401 C 577 412.522, 577.675 410.272, 578.500 408.401 C 580.100 404.774, 582.622 398.785, 583.934 395.500 C 584.373 394.400, 585.229 392.375, 585.836 391 C 586.443 389.625, 588.325 384.900, 590.019 380.500 C 591.713 376.100, 593.976 370.592, 595.049 368.261 C 596.122 365.929, 597 363.747, 597 363.412 C 597 363.077, 597.675 361.272, 598.500 359.401 C 599.325 357.531, 600.697 354.313, 601.548 352.250 C 602.400 350.188, 603.468 347.810, 603.921 346.967 C 604.375 346.124, 605.063 343.992, 605.450 342.229 C 605.837 340.466, 606.569 338.766, 607.077 338.452 C 607.585 338.139, 608 337.009, 608 335.941 C 608 334.873, 608.450 334, 609 334 C 609.550 334, 610 333.281, 610 332.401 C 610 331.522, 610.675 329.272, 611.500 327.401 C 612.325 325.531, 613.675 322.469, 614.500 320.599 C 616.883 315.196, 616.670 315, 608.434 315 C 599.572 315, 597.725 315.773, 595.987 320.212 C 594.511 323.983, 592.378 329.096, 590.381 333.651 C 589.622 335.384, 589 337.303, 589 337.915 C 589 338.527, 588.603 339.809, 588.117 340.764 C 586.800 343.351, 585.643 346.140, 579.509 361.500 C 576.435 369.200, 573.522 376.400, 573.037 377.500 C 572.552 378.600, 571.371 381.750, 570.412 384.500 C 569.454 387.250, 568.294 389.928, 567.835 390.450 C 567.376 390.972, 567 391.973, 567 392.673 C 567 393.373, 565.920 396.320, 564.600 399.223 C 563.279 402.125, 561.389 406.975, 560.398 410 C 559.407 413.025, 558.237 415.928, 557.798 416.450 C 557.359 416.973, 557 418.525, 557 419.900 C 557 423.441, 555.601 421.488, 553.490 415 C 552.505 411.975, 550.642 407.125, 549.350 404.223 C 548.057 401.320, 547 398.559, 547 398.087 C 547 397.615, 546.328 395.940, 545.506 394.364 C 544.685 392.789, 544.010 390.803, 544.006 389.950 C 544.003 389.097, 543.622 387.972, 543.160 387.450 C 542.698 386.928, 541.731 384.925, 541.010 383 C 540.290 381.075, 539.134 378.150, 538.443 376.500 C 537.752 374.850, 535.321 368.775, 533.042 363 C 528.681 351.949, 528.172 350.706, 525.602 344.849 C 524.721 342.841, 524 340.478, 524 339.599 C 524 338.719, 523.550 338, 523 338 C 522.450 338, 521.997 337.212, 521.994 336.250 C 521.990 335.288, 521.315 333.211, 520.494 331.636 C 519.672 330.060, 519 328.148, 519 327.386 C 519 326.624, 518.550 326, 518 326 C 517.450 326, 517 324.975, 517 323.723 C 517 321.472, 514.610 317.190, 512.558 315.765 C 511.976 315.361, 507.830 315.024, 503.344 315.015 C 495.676 315.001, 495.219 315.120, 495.710 317 M 669.243 379.750 L 669.500 444.500 709 444.500 L 748.500 444.500 748.794 437.250 L 749.088 430 717.544 430 L 686 430 686 408.107 C 686 389.066, 686.206 386.135, 687.582 385.607 C 688.452 385.273, 699.927 385, 713.082 385 L 737 385 737 378.517 L 737 372.034 711.750 371.767 L 686.500 371.500 686.230 350.264 L 685.960 329.029 717.230 328.764 L 748.500 328.500 748.796 321.750 L 749.091 315 709.038 315 L 668.985 315 669.243 379.750 M 810 380.044 L 810 445.088 817.250 444.794 L 824.500 444.500 824.759 395.250 C 824.902 368.163, 825.390 346, 825.843 346 C 826.297 346, 828.430 348.561, 830.584 351.691 C 832.738 354.821, 835.192 358.084, 836.038 358.941 C 836.884 359.798, 838.885 362.300, 840.485 364.500 C 842.085 366.700, 843.673 368.725, 844.014 369 C 844.355 369.275, 846.626 372.200, 849.061 375.500 C 851.496 378.800, 853.717 381.725, 853.997 382 C 854.276 382.275, 856.528 385.200, 859 388.500 C 861.472 391.800, 863.755 394.725, 864.073 395 C 864.391 395.275, 865.501 396.962, 866.541 398.750 C 867.581 400.538, 868.714 402, 869.059 402 C 869.404 402, 871.220 404.249, 873.093 406.998 C 874.967 409.747, 876.837 411.997, 877.250 411.998 C 877.663 411.999, 878 412.637, 878 413.417 C 878 414.196, 878.341 414.983, 878.757 415.167 C 879.174 415.350, 881.075 417.525, 882.982 420 C 884.888 422.475, 886.686 424.725, 886.977 425 C 887.267 425.275, 889.529 428.200, 892.003 431.500 C 894.476 434.800, 897.063 438.095, 897.750 438.821 C 898.438 439.548, 899.003 440.448, 899.006 440.821 C 899.021 442.431, 905.523 445, 909.581 445 L 914 445 914 380 L 914 315 906.500 315 L 899 315 898.984 364.250 L 898.969 413.500 895 409 C 892.817 406.525, 891.024 404.166, 891.016 403.758 C 891.001 403.049, 889.930 401.701, 883.766 394.634 C 882.262 392.910, 881.025 391.103, 881.016 390.617 C 881.007 390.132, 880.177 389.007, 879.170 388.117 C 878.164 387.228, 876.926 385.773, 876.420 384.885 C 875.486 383.247, 874.020 381.342, 863.750 368.431 C 860.587 364.455, 858 360.932, 858 360.603 C 858 360.274, 856.425 358.335, 854.500 356.294 C 852.575 354.253, 851 352.296, 851 351.945 C 851 351.593, 850.184 350.366, 849.188 349.216 C 848.191 348.067, 846.503 345.908, 845.438 344.419 C 844.372 342.930, 842.361 340.314, 840.968 338.606 C 839.576 336.898, 837.124 333.700, 835.521 331.500 C 833.918 329.300, 832.325 327.275, 831.983 327 C 831.640 326.725, 829.465 323.913, 827.149 320.750 L 822.937 315 816.468 315 L 810 315 810 380.044 M 396.200 336.051 C 395.540 337.108, 395 338.789, 395 339.786 C 395 340.784, 394.624 342.028, 394.165 342.550 C 393.706 343.072, 392.539 345.750, 391.571 348.500 C 390.603 351.250, 389.179 354.918, 388.406 356.651 C 387.633 358.384, 387 360.303, 387 360.915 C 387 361.527, 386.588 362.809, 386.084 363.764 C 384.078 367.566, 382 372.878, 382 374.201 C 382 374.971, 381.609 376.028, 381.131 376.550 C 380.654 377.073, 379.451 379.750, 378.459 382.500 C 377.467 385.250, 376.317 387.955, 375.903 388.512 C 375.489 389.068, 375.004 390.868, 374.825 392.512 L 374.500 395.500 396.930 395.770 C 409.267 395.918, 419.699 395.693, 420.113 395.270 C 420.792 394.575, 418.457 386.588, 416.087 381.500 C 415.575 380.400, 414.356 377.250, 413.379 374.500 C 412.402 371.750, 411.313 369.275, 410.959 369 C 410.604 368.725, 410.037 367.071, 409.697 365.324 C 409.357 363.577, 408.223 360.202, 407.177 357.824 C 406.130 355.446, 404.491 351.475, 403.534 349 C 402.578 346.525, 401.448 343.810, 401.024 342.967 C 400.601 342.124, 399.937 339.992, 399.550 338.229 C 398.667 334.206, 397.732 333.598, 396.200 336.051" stroke="none" fill="#a1474f" fill-rule="evenodd"/></svg>